<svg width="900" height="189" viewBox="0 0 900 189" fill="none" xmlns="http://www.w3.org/2000/svg">
<path d="M0 0H900V105C900 105 542.5 105 508 105C473.5 105 465 189 428.5 189C392 189 0 189 0 189V0Z" fill="#686EA0"/>
<path d="M251.534 98.0893C251.534 109.668 248.639 118.751 242.85 125.337C236.241 132.851 226.25 136.607 212.879 136.607H167V133.674C168.639 133.674 170.074 133.005 171.304 131.667C171.713 131.204 172.123 130.406 172.533 129.274C172.994 128.09 173.225 127.01 173.225 126.032V69.9922C173.225 68.6542 173.199 67.8051 173.148 67.4449C172.943 66.2099 172.508 65.1807 171.841 64.3573C171.175 63.534 170.484 62.9936 169.767 62.7363C169.101 62.479 168.178 62.3504 167 62.3504V59.34H209.036C220.461 59.34 230.323 62.9936 238.623 70.301C247.23 77.8656 251.534 87.1284 251.534 98.0893ZM226.865 98.0893C226.865 89.7014 224.457 82.2911 219.641 75.8586C215.031 69.6834 209.984 66.5958 204.502 66.5958C203.119 66.5958 201.761 66.8789 200.429 67.4449C199.148 68.011 198.303 69.0145 197.893 70.4553C197.483 71.8448 197.278 73.5429 197.278 75.5499V118.622C197.278 121.709 197.611 123.845 198.277 125.029C198.944 126.161 200.071 127.061 201.659 127.73C203.247 128.348 204.963 128.657 206.808 128.657C212.29 128.657 217.003 125.801 220.948 120.088C224.893 114.325 226.865 106.992 226.865 98.0893Z" fill="white"/>
<path d="M287.002 60.3435C287.002 63.4311 285.952 66.107 283.851 68.3712C281.802 70.584 279.291 71.6904 276.32 71.6904C275.859 71.7418 275.5 71.7676 275.244 71.7676C272.221 71.7676 269.583 70.7898 267.329 68.8343C264.921 66.7245 263.717 64.2287 263.717 61.3469C263.717 58.1564 264.921 55.4805 267.329 53.3192C269.788 51.1064 272.682 50 276.012 50C279.445 50 282.135 50.952 284.082 52.856C286.028 54.76 287.002 57.2559 287.002 60.3435ZM293.534 136.684H258.184V133.674C259.208 133.674 260.105 133.52 260.873 133.211C261.642 132.902 262.359 132.387 263.025 131.667C263.742 130.947 264.203 130.123 264.408 129.197C264.664 128.219 264.793 127.164 264.793 126.032C264.741 124.951 264.716 124.205 264.716 123.794V90.4475C264.716 88.595 264.588 87.2056 264.331 86.2793C263.922 84.8899 263.153 83.8864 262.026 83.2689C260.95 82.6513 259.746 82.3426 258.414 82.3426V79.1778L286.925 77.7112V125.183C286.925 127.499 287.079 129.12 287.386 130.046C287.694 130.921 288.18 131.641 288.846 132.207C289.512 132.773 290.23 133.159 290.998 133.365C291.766 133.571 292.612 133.674 293.534 133.674V136.684Z" fill="white"/>
<path d="M380.793 113.45L371.648 139C371.187 138.537 370.854 138.202 370.649 137.997C370.342 137.739 370.009 137.508 369.65 137.302C369.343 137.147 368.933 137.07 368.421 137.07C364.425 137.43 360.633 137.739 357.047 137.997C353.461 138.305 350.361 138.46 347.748 138.46C345.136 138.46 342.881 138.357 340.986 138.151C339.141 137.997 337.246 137.688 335.299 137.225C324.079 134.343 315.549 129.351 309.708 122.25C303.868 115.148 300.948 106.374 300.948 95.928C300.948 83.9893 304.79 74.5721 312.475 67.6765C320.211 60.7294 330.714 57.2559 343.983 57.2559C346.186 57.2559 348.824 57.5132 351.898 58.0278C358.661 59.1599 362.58 59.7259 363.656 59.7259C364.988 59.7259 366.167 59.5458 367.191 59.1856C367.652 59.0312 368.062 58.8254 368.421 58.5681C368.831 58.3108 369.548 57.7447 370.573 56.8699L376.721 89.4441L374.415 90.6791C374.415 88.878 373.288 86.2021 371.034 82.6513C368.421 78.5346 365.398 75.1382 361.966 72.4623C357.662 69.1174 353.307 67.4449 348.901 67.4449C341.319 67.4449 335.478 70.198 331.38 75.7043C327.793 80.5415 326 86.7167 326 94.2298C326 101.331 327.768 107.944 331.303 114.068C335.401 121.118 340.909 125.466 347.825 127.113C350.643 127.782 353.333 128.116 355.894 128.116C361.018 128.116 365.475 126.727 369.266 123.948C372.648 121.426 375.67 117.644 378.334 112.601L380.793 113.45Z" fill="white"/>
<g clip-path="url(#clip0_15_2)">
<path fill-rule="evenodd" clip-rule="evenodd" d="M126.534 139.337C126.146 139.337 125.754 139.293 125.371 139.209C123.81 138.869 122.497 137.875 121.668 136.417C120.853 134.981 120.606 133.258 120.972 131.57C121.333 129.922 122.241 128.495 123.511 127.54L69.4775 77.0608C68.6621 77.8606 67.6483 78.4438 66.5155 78.7619C65.8808 78.943 65.2329 79.0314 64.585 79.0314C61.7376 79.0314 59.3443 77.3304 58.6347 74.8031C57.7487 71.644 59.838 68.2772 63.2935 67.2963C63.9238 67.1196 64.5718 67.0268 65.2153 67.0268C65.8588 67.0268 66.5067 67.1196 67.1106 67.2963C66.7271 66.0945 66.683 64.769 67.0136 63.47C67.7673 60.5053 70.24 58.4331 73.03 58.4331C73.484 58.4331 73.9336 58.4906 74.3744 58.601C77.5479 59.4096 79.4079 62.9089 78.5219 66.3994C78.1693 67.7823 77.4333 69.0018 76.4151 69.9031L79.8002 73.0667C79.9148 71.8074 80.1219 70.5526 80.4216 69.3155C83.2117 57.7439 93.4418 49.6628 105.29 49.6628C107.313 49.6628 109.345 49.9058 111.328 50.3874C125.049 53.7188 133.503 67.6277 130.179 81.3908C129.893 82.5838 129.518 83.759 129.06 84.899L133.282 83.7016C132.784 82.4335 132.683 81.0108 133.005 79.6191C133.692 76.6234 136.227 74.4452 139.03 74.4452C139.44 74.4452 139.854 74.4938 140.255 74.5866C143.446 75.3244 145.386 78.7796 144.579 82.2877C144.28 83.5956 143.64 84.7532 142.746 85.6457C143.989 85.8843 145.165 86.4851 146.135 87.3953C148.762 89.8519 149.084 93.8019 146.854 96.2055C145.787 97.3542 144.302 97.9861 142.662 97.9861C140.974 97.9861 139.334 97.3189 138.043 96.1127C137.183 95.3086 136.549 94.3277 136.187 93.2408L113.616 99.6297C112.633 99.9699 111.623 100.257 110.645 100.469L109.49 100.796L130.175 120.122C130.863 119.548 131.665 119.11 132.529 118.832C133.23 118.606 133.952 118.492 134.675 118.492C137.408 118.492 139.753 120.109 140.515 122.512C141.507 125.636 139.537 129.065 136.121 130.156C135.425 130.381 134.702 130.492 133.983 130.492C133.415 130.492 132.855 130.421 132.322 130.284C132.745 131.468 132.833 132.789 132.546 134.097C131.885 137.128 129.36 139.328 126.534 139.328V139.337Z" fill="white"/>
<path fill-rule="evenodd" clip-rule="evenodd" d="M59.5293 123.078C59.0577 123.078 58.5861 123.016 58.1277 122.892C56.585 122.481 55.3156 121.43 54.5531 119.936C53.8038 118.465 53.6319 116.733 54.0771 115.063C54.4209 113.768 55.0996 112.633 56.0164 111.776C54.7867 111.493 53.6231 110.848 52.6931 109.92C50.1543 107.384 49.9691 103.429 52.2743 101.11C53.3234 100.054 54.7558 99.4706 56.3029 99.4706C58.0351 99.4706 59.7673 100.208 61.0588 101.499C61.6979 102.139 62.2136 102.899 62.5618 103.725L87.9145 96.5501L96.4301 104.508L65.105 113.375C65.8014 114.807 65.9601 116.494 65.5237 118.125C64.748 121.045 62.2841 123.082 59.5293 123.082V123.078Z" fill="white"/>
<path d="M87.7339 97.288L95.1167 104.185L64.1045 112.964C65.0213 114.316 65.3651 116.137 64.8847 117.948C64.1751 120.617 61.9227 122.415 59.5294 122.415C59.1195 122.415 58.7096 122.362 58.2997 122.252C55.492 121.5 53.8876 118.359 54.7163 115.235C55.2099 113.384 56.4485 111.957 57.9559 111.254C57.7884 111.272 57.6165 111.276 57.4446 111.276C55.9372 111.276 54.3769 110.662 53.1604 109.447C50.8772 107.163 50.6921 103.637 52.7416 101.574C53.7025 100.606 54.9807 100.133 56.303 100.133C57.8104 100.133 59.3751 100.752 60.5916 101.967C61.3409 102.718 61.861 103.606 62.1519 104.53L87.7339 97.288ZM88.0909 95.8078L87.3725 96.0111L62.9189 102.935C62.5574 102.237 62.0858 101.591 61.5261 101.03C60.1156 99.6209 58.2115 98.8079 56.303 98.8079C54.5752 98.8079 52.9796 99.4574 51.8028 100.641C49.242 103.222 49.4271 107.596 52.2215 110.388C52.9708 111.139 53.8612 111.718 54.822 112.098C54.1873 112.902 53.7113 113.852 53.4336 114.895C52.4199 118.721 54.4474 122.596 57.9559 123.533C58.4672 123.67 58.9961 123.741 59.525 123.741C62.5795 123.741 65.3078 121.5 66.1585 118.288C66.5596 116.768 66.4979 115.204 65.9998 113.804L95.4781 105.462L97.7392 104.821L96.0202 103.217L88.6375 96.3204L88.0909 95.8122V95.8078Z" fill="white"/>
<path fill-rule="evenodd" clip-rule="evenodd" d="M97.5848 69.8148C100.423 70.5084 103.235 68.9709 103.866 66.3861C104.496 63.8014 102.702 61.146 99.8635 60.4523C97.025 59.7586 94.213 61.2962 93.5827 63.8809C92.9524 66.4657 94.7463 69.1211 97.5848 69.8148Z" fill="#686EA0"/>
<path fill-rule="evenodd" clip-rule="evenodd" d="M116.873 64.6011C114.034 63.9075 111.222 65.445 110.592 68.0298C109.962 70.6145 111.756 73.2699 114.594 73.9636C117.433 74.6573 120.245 73.1197 120.875 70.535C121.505 67.9502 119.711 65.2948 116.873 64.6011Z" fill="#686EA0"/>
<path fill-rule="evenodd" clip-rule="evenodd" d="M117.516 92.2643C117.807 87.5279 116.348 82.8842 112.968 79.5351C110.032 76.6278 105.849 74.9886 101.353 75.0903C95.3591 75.2272 89.735 78.9165 86.7951 84.7752C85.7504 84.6736 84.8821 84.9785 84.7411 85.5661C84.5692 86.2642 85.4904 87.0905 86.7906 87.4086C88.0953 87.7267 89.2898 87.4174 89.4573 86.7149C89.5322 86.4056 89.3867 86.0698 89.0914 85.765C91.1718 81.5454 94.8787 78.5145 99.5816 77.8959C103.072 77.4364 109.001 78.1433 112.531 82.9681C114.457 85.6015 115.211 88.8666 114.872 92.1141C114.537 92.2555 114.299 92.4676 114.233 92.7459C114.061 93.444 114.982 94.2702 116.282 94.5884C117.587 94.9065 118.781 94.5972 118.949 93.8947C119.09 93.3115 118.473 92.6487 117.512 92.2555L117.516 92.2643Z" fill="#686EA0"/>
</g>
<defs>
<clipPath id="clip0_15_2">
<rect width="99" height="91" fill="white" transform="translate(50 49)"/>
</clipPath>
</defs>
</svg>
